<?xml version="1.0" encoding="UTF-8"?>
<svg width="134px" height="34px" viewBox="0 0 134 34" version="1.1" xmlns="http://www.w3.org/2000/svg" xmlns:xlink="http://www.w3.org/1999/xlink">
    <title>ic_logo_text@3x</title>
    <defs>
        <linearGradient x1="100%" y1="66.9053275%" x2="0%" y2="66.9053275%" id="linearGradient-1">
            <stop stop-color="#E0608A" offset="0%"></stop>
            <stop stop-color="#A091B7" offset="48.7416107%"></stop>
            <stop stop-color="#64BFE1" offset="100%"></stop>
        </linearGradient>
        <linearGradient x1="100%" y1="66.9053275%" x2="0%" y2="66.9053275%" id="linearGradient-2">
            <stop stop-color="#E0608A" offset="0%"></stop>
            <stop stop-color="#A091B7" offset="0.0109265734%"></stop>
            <stop stop-color="#64BFE1" offset="100%"></stop>
        </linearGradient>
    </defs>
    <g id="Page-1" stroke="none" stroke-width="1" fill="none" fill-rule="evenodd">
        <g id="ic_logo_text" transform="translate(0.000000, 1.000000)">
            <path d="M11.734,32 C10.31,23.454 11.405,15.419 15.02,7.894 C17.942,1.813 23.602,-0.358 32,1.379 L32,5.94 C25.792,4.202 21.593,5.288 19.402,9.197 C17.211,13.106 17.211,20.707 19.402,32 L11.734,32 Z" id="Path" stroke-opacity="0" stroke="#000000" fill="#1F1F1F" fill-rule="nonzero"></path>
            <path d="M11.059,32 C9.587,23.235 10.719,14.994 14.454,7.276 C17.473,1.039 23.322,-1.188 32,0.594 L32,5.271 C25.586,3.49 21.246,4.603 18.982,8.613 C16.718,12.622 16.718,20.418 18.982,32 L11.059,32 Z" id="Path" fill="url(#linearGradient-1)"></path>
            <polygon id="Path" stroke-opacity="0" stroke="#000000" fill="#1F1F1F" fill-rule="nonzero" points="0.696 0 0.696 5.6 13.131 5.6 18.783 0"></polygon>
            <polygon id="Path" fill="url(#linearGradient-2)" points="0 0 0 5.6 12.435 5.6 18.087 0"></polygon>
            <path d="M36.804,32 L36.804,24.64 C36.804,23.573 36.911,22.629 37.124,21.808 C37.337,20.987 37.679,20.288 38.148,19.712 C38.617,19.136 39.236,18.699 40.004,18.4 C40.772,18.101 41.7,17.952 42.788,17.952 L42.788,15.072 C41.316,15.029 40.1,15.328 39.14,15.968 C38.18,16.608 37.369,17.6 36.708,18.944 L36.644,18.944 L36.644,15.456 L34.084,15.456 L34.084,32 L36.804,32 Z M57.54,32.352 C58.372,32.352 59.023,32.213 59.492,31.936 L59.492,31.936 L59.492,29.824 C59.172,29.931 58.895,29.984 58.66,29.984 C58.233,29.984 57.983,29.835 57.908,29.536 C57.833,29.237 57.796,28.768 57.796,28.128 L57.796,28.128 L57.796,19.616 C57.796,18.656 57.615,17.877 57.252,17.28 C56.889,16.683 56.409,16.219 55.812,15.888 C55.215,15.557 54.548,15.339 53.812,15.232 C53.076,15.125 52.335,15.072 51.588,15.072 C50.649,15.072 49.769,15.168 48.948,15.36 C48.127,15.552 47.396,15.867 46.756,16.304 C46.116,16.741 45.604,17.312 45.22,18.016 C44.836,18.72 44.623,19.584 44.58,20.608 L44.58,20.608 L47.3,20.608 C47.364,19.392 47.78,18.565 48.548,18.128 C49.316,17.691 50.276,17.472 51.428,17.472 C51.855,17.472 52.287,17.504 52.724,17.568 C53.161,17.632 53.556,17.76 53.908,17.952 C54.26,18.144 54.548,18.421 54.772,18.784 C54.996,19.147 55.108,19.627 55.108,20.224 C55.108,20.736 54.959,21.125 54.66,21.392 C54.361,21.659 53.956,21.861 53.444,22 C52.932,22.139 52.34,22.245 51.668,22.32 C50.996,22.395 50.287,22.507 49.54,22.656 C48.836,22.784 48.148,22.944 47.476,23.136 C46.804,23.328 46.207,23.611 45.684,23.984 C45.161,24.357 44.74,24.843 44.42,25.44 C44.1,26.037 43.94,26.805 43.94,27.744 C43.94,28.576 44.084,29.285 44.372,29.872 C44.66,30.459 45.049,30.933 45.54,31.296 C46.031,31.659 46.612,31.925 47.284,32.096 C47.956,32.267 48.665,32.352 49.412,32.352 C50.564,32.352 51.636,32.155 52.628,31.76 C53.62,31.365 54.489,30.72 55.236,29.824 C55.236,30.72 55.444,31.365 55.86,31.76 C56.276,32.155 56.836,32.352 57.54,32.352 Z M50.02,29.984 C49.593,29.984 49.188,29.941 48.804,29.856 C48.42,29.771 48.084,29.632 47.796,29.44 C47.508,29.248 47.273,28.997 47.092,28.688 C46.911,28.379 46.82,28 46.82,27.552 C46.82,26.869 46.975,26.331 47.284,25.936 C47.593,25.541 47.993,25.237 48.484,25.024 C48.975,24.811 49.529,24.656 50.148,24.56 C50.767,24.464 51.38,24.379 51.988,24.304 C52.596,24.229 53.177,24.133 53.732,24.016 C54.287,23.899 54.735,23.712 55.076,23.456 L55.076,23.456 L55.076,26.24 C55.076,26.624 54.98,27.035 54.788,27.472 C54.596,27.909 54.297,28.315 53.892,28.688 C53.487,29.061 52.964,29.371 52.324,29.616 C51.684,29.861 50.916,29.984 50.02,29.984 Z M68.868,32.352 C70.98,32.352 72.649,31.797 73.876,30.688 C75.103,29.579 75.865,28 76.164,25.952 L73.38,25.952 C73.209,27.232 72.745,28.224 71.988,28.928 C71.231,29.632 70.18,29.984 68.836,29.984 C67.983,29.984 67.247,29.813 66.628,29.472 C66.009,29.131 65.508,28.677 65.124,28.112 C64.74,27.547 64.457,26.901 64.276,26.176 C64.095,25.451 64.004,24.704 64.004,23.936 C64.004,23.104 64.089,22.299 64.26,21.52 C64.431,20.741 64.713,20.053 65.108,19.456 C65.503,18.859 66.031,18.379 66.692,18.016 C67.353,17.653 68.175,17.472 69.156,17.472 C70.308,17.472 71.225,17.76 71.908,18.336 C72.591,18.912 73.039,19.723 73.252,20.768 L76.068,20.768 C75.961,19.787 75.705,18.939 75.3,18.224 C74.895,17.509 74.377,16.917 73.748,16.448 C73.119,15.979 72.393,15.632 71.572,15.408 C70.751,15.184 69.871,15.072 68.932,15.072 C67.631,15.072 66.489,15.301 65.508,15.76 C64.527,16.219 63.711,16.848 63.06,17.648 C62.409,18.448 61.924,19.387 61.604,20.464 C61.284,21.541 61.124,22.699 61.124,23.936 C61.124,25.173 61.289,26.309 61.62,27.344 C61.951,28.379 62.441,29.269 63.092,30.016 C63.743,30.763 64.553,31.339 65.524,31.744 C66.495,32.149 67.609,32.352 68.868,32.352 Z M82.084,32 L82.084,25.728 L84.644,23.36 L90.308,32 L93.764,32 L86.724,21.472 L93.284,15.456 L89.636,15.456 L82.084,22.688 L82.084,9.152 L79.364,9.152 L79.364,32 L82.084,32 Z M102.884,32 L102.884,29.6 L101.636,29.6 C101.209,29.6 100.863,29.584 100.596,29.552 C100.329,29.52 100.121,29.451 99.972,29.344 C99.823,29.237 99.721,29.088 99.668,28.896 C99.615,28.704 99.588,28.448 99.588,28.128 L99.588,17.856 L102.884,17.856 L102.884,15.456 L99.588,15.456 L99.588,10.496 L96.868,10.496 L96.868,15.456 L94.052,15.456 L94.052,17.856 L96.868,17.856 L96.868,28.384 C96.868,29.152 96.943,29.771 97.092,30.24 C97.241,30.709 97.471,31.072 97.78,31.328 C98.089,31.584 98.495,31.76 98.996,31.856 C99.497,31.952 100.1,32 100.804,32 L102.884,32 Z M113.028,32.352 C114.351,32.352 115.508,32.133 116.5,31.696 C117.492,31.259 118.329,30.651 119.012,29.872 C119.695,29.093 120.207,28.181 120.548,27.136 C120.889,26.091 121.06,24.96 121.06,23.744 C121.06,22.528 120.889,21.392 120.548,20.336 C120.207,19.28 119.695,18.363 119.012,17.584 C118.329,16.805 117.492,16.192 116.5,15.744 C115.508,15.296 114.351,15.072 113.028,15.072 C111.727,15.072 110.575,15.296 109.572,15.744 C108.569,16.192 107.727,16.805 107.044,17.584 C106.361,18.363 105.849,19.28 105.508,20.336 C105.167,21.392 104.996,22.528 104.996,23.744 C104.996,24.96 105.167,26.091 105.508,27.136 C105.849,28.181 106.361,29.093 107.044,29.872 C107.727,30.651 108.569,31.259 109.572,31.696 C110.575,32.133 111.727,32.352 113.028,32.352 Z M113.028,29.984 C112.324,29.984 111.657,29.845 111.028,29.568 C110.399,29.291 109.849,28.891 109.38,28.368 C108.911,27.845 108.543,27.195 108.276,26.416 C108.009,25.637 107.876,24.747 107.876,23.744 C107.876,22.741 108.009,21.851 108.276,21.072 C108.543,20.293 108.911,19.637 109.38,19.104 C109.849,18.571 110.399,18.165 111.028,17.888 C111.657,17.611 112.324,17.472 113.028,17.472 C113.732,17.472 114.399,17.611 115.028,17.888 C115.657,18.165 116.207,18.571 116.676,19.104 C117.145,19.637 117.513,20.293 117.78,21.072 C118.047,21.851 118.18,22.741 118.18,23.744 C118.18,24.747 118.047,25.637 117.78,26.416 C117.513,27.195 117.145,27.845 116.676,28.368 C116.207,28.891 115.657,29.291 115.028,29.568 C114.399,29.845 113.732,29.984 113.028,29.984 Z M126.884,32 L126.884,24.64 C126.884,23.573 126.991,22.629 127.204,21.808 C127.417,20.987 127.759,20.288 128.228,19.712 C128.697,19.136 129.316,18.699 130.084,18.4 C130.852,18.101 131.78,17.952 132.868,17.952 L132.868,15.072 C131.396,15.029 130.18,15.328 129.22,15.968 C128.26,16.608 127.449,17.6 126.788,18.944 L126.724,18.944 L126.724,15.456 L124.164,15.456 L124.164,32 L126.884,32 Z" id="Shape" stroke-opacity="0" stroke="#000000" fill="#FFFFFF" fill-rule="nonzero"></path>
        </g>
    </g>
</svg>